<svg width="50" height="14" viewBox="0 0 50 14" fill="none" xmlns="http://www.w3.org/2000/svg">
<path d="M4 0H0V4H4V0Z" fill="#4FA31A"/>
<path d="M9 0H5V4H9V0Z" fill="#4FA31A"/>
<path d="M14 0H10V4H14V0Z" fill="#4FA31A"/>
<path d="M4 5H0V9H4V5Z" fill="#4FA31A"/>
<path d="M9 5H5V9H9V5Z" fill="#4FA31A"/>
<path d="M14 5H10V9H14V5Z" fill="#4FA31A"/>
<path d="M4 10H0V14H4V10Z" fill="#4FA31A"/>
<path d="M9 10H5V14H9V10Z" fill="#4FA31A"/>
<path d="M14 10H10V14H14V10Z" fill="#4FA31A"/>
<path d="M17.6858 0.436279V9.74245H16V0.436279H17.6858Z" fill="#0C0E0C"/>
<path d="M21.0838 5.65275V9.74238H19.4388V2.76275H21.0111V3.94875H21.0929C21.2534 3.55796 21.5094 3.24745 21.8608 3.01722C22.2153 2.78699 22.653 2.67188 23.1741 2.67188C23.6557 2.67188 24.0753 2.77487 24.4327 2.98087C24.7932 3.18686 25.0719 3.48526 25.2688 3.87604C25.4688 4.26683 25.5672 4.74092 25.5642 5.29832V9.74238H23.9192V5.55278C23.9192 5.08627 23.7981 4.72123 23.5558 4.45768C23.3164 4.19412 22.9847 4.06234 22.5606 4.06234C22.2728 4.06234 22.0168 4.12596 21.7927 4.25319C21.5715 4.37739 21.3973 4.55764 21.2701 4.79393C21.1459 5.03022 21.0838 5.3165 21.0838 5.65275Z" fill="#0C0E0C"/>
<path d="M30.7714 2.76277V4.03509H26.6455V2.76277H30.7714ZM27.677 9.7424V2.10388C27.677 1.63433 27.7739 1.24355 27.9678 0.931525C28.1647 0.619502 28.4282 0.386242 28.7585 0.231746C29.0887 0.0772487 29.4552 0 29.8581 0C30.1429 0 30.3958 0.0227203 30.6169 0.0681608C30.8381 0.113601 31.0017 0.154497 31.1077 0.19085L30.7805 1.46317C30.7108 1.44197 30.623 1.42077 30.517 1.39956C30.411 1.37532 30.2928 1.36321 30.1625 1.36321C29.8566 1.36321 29.64 1.43743 29.5127 1.58586C29.3886 1.73127 29.3264 1.9403 29.3264 2.21294V9.7424H27.677Z" fill="#0C0E0C"/>
<path d="M33.7046 0.436279V9.74245H32.0597V0.436279H33.7046Z" fill="#0C0E0C"/>
<path d="M39.8447 6.80685V2.7627H41.4896V9.74233H39.8947V8.50179H39.822C39.6645 8.89259 39.4054 9.21216 39.045 9.46058C38.6875 9.70899 38.2468 9.83317 37.7227 9.83317C37.2652 9.83317 36.8608 9.73169 36.5094 9.52872C36.161 9.32275 35.8884 9.02439 35.6915 8.63359C35.4946 8.23978 35.3961 7.76417 35.3961 7.20675V2.7627H37.041V6.95231C37.041 7.39459 37.1623 7.74596 37.4046 8.00649C37.6469 8.26702 37.965 8.39729 38.3588 8.39729C38.6011 8.39729 38.836 8.33819 39.0632 8.2201C39.2904 8.10195 39.4767 7.92623 39.6221 7.69295C39.7705 7.45665 39.8447 7.1613 39.8447 6.80685Z" fill="#0C0E0C"/>
<path d="M44.5262 2.7627L45.9349 5.33916L47.3663 2.7627H49.1066L47.0028 6.25251L49.143 9.74233H47.4117L45.9349 7.22945L44.4717 9.74233H42.7268L44.8534 6.25251L42.7814 2.7627H44.5262Z" fill="#0C0E0C"/>
<path d="M16 10.9616V10.4263H18.8126V10.9616H17.723V13.9515H17.0896V10.9616H16Z" fill="#4FA31A"/>
<path d="M19.2926 13.9515V10.4263H21.5853V10.9616H19.9312V11.9187H21.4666V12.454H19.9312V13.4162H21.5991V13.9515H19.2926Z" fill="#4FA31A"/>
<path d="M25.192 11.616H24.5482C24.5299 11.5104 24.496 11.4169 24.4466 11.3354C24.3973 11.2528 24.3359 11.1828 24.2625 11.1254C24.1891 11.068 24.1053 11.025 24.0112 10.9964C23.9182 10.9665 23.8178 10.9516 23.71 10.9516C23.5183 10.9516 23.3485 10.9998 23.2004 11.0962C23.0524 11.1914 22.9365 11.3314 22.8528 11.5162C22.769 11.6998 22.7271 11.9241 22.7271 12.1892C22.7271 12.4588 22.769 12.6861 22.8528 12.8708C22.9376 13.0544 23.0536 13.1933 23.2004 13.2874C23.3485 13.3803 23.5178 13.4268 23.7082 13.4268C23.8138 13.4268 23.9125 13.413 24.0043 13.3855C24.0972 13.3568 24.1804 13.3149 24.2539 13.2598C24.3285 13.2047 24.391 13.1371 24.4415 13.0567C24.4932 12.9764 24.5287 12.8846 24.5482 12.7813L25.192 12.7847C25.1679 12.9523 25.1156 13.1095 25.0353 13.2564C24.9562 13.4033 24.8523 13.5329 24.7238 13.6454C24.5953 13.7567 24.4449 13.8439 24.2728 13.9071C24.1007 13.969 23.9096 14 23.6996 14C23.3898 14 23.1132 13.9283 22.87 13.7848C22.6267 13.6414 22.435 13.4342 22.2951 13.1634C22.155 12.8926 22.0851 12.5679 22.0851 12.1892C22.0851 11.8093 22.1556 11.4846 22.2968 11.2149C22.4379 10.9441 22.6301 10.737 22.8734 10.5936C23.1167 10.4501 23.3921 10.3784 23.6996 10.3784C23.8958 10.3784 24.0783 10.406 24.247 10.461C24.4157 10.5161 24.566 10.597 24.698 10.7037C24.8299 10.8093 24.9384 10.939 25.0233 11.0928C25.1094 11.2454 25.1656 11.4198 25.192 11.616Z" fill="#4FA31A"/>
<path d="M25.7144 13.9515V10.4263H26.353V11.9187H27.9864V10.4263H28.6268V13.9515H27.9864V12.454H26.353V13.9515H25.7144Z" fill="#4FA31A"/>
<path d="M32.156 10.4263V13.9515H31.588L29.927 11.5503H29.8977V13.9515H29.2591V10.4263H29.8306L31.4899 12.8292H31.5208V10.4263H32.156Z" fill="#4FA31A"/>
<path d="M35.9395 12.1892C35.9395 12.569 35.8683 12.8944 35.726 13.1652C35.5848 13.4348 35.3921 13.6414 35.1477 13.7848C34.9044 13.9283 34.6284 14 34.3197 14C34.011 14 33.7345 13.9283 33.4901 13.7848C33.2468 13.6403 33.054 13.4331 32.9117 13.1634C32.7705 12.8926 32.7 12.5679 32.7 12.1892C32.7 11.8093 32.7705 11.4846 32.9117 11.2149C33.054 10.9441 33.2468 10.737 33.4901 10.5936C33.7345 10.4501 34.011 10.3784 34.3197 10.3784C34.6284 10.3784 34.9044 10.4501 35.1477 10.5936C35.3921 10.737 35.5848 10.9441 35.726 11.2149C35.8683 11.4846 35.9395 11.8093 35.9395 12.1892ZM35.2974 12.1892C35.2974 11.9218 35.2555 11.6963 35.1718 11.5127C35.0891 11.328 34.9744 11.1886 34.8275 11.0945C34.6806 10.9992 34.5113 10.9516 34.3197 10.9516C34.1281 10.9516 33.9588 10.9992 33.812 11.0945C33.6651 11.1886 33.5497 11.328 33.466 11.5127C33.3833 11.6963 33.342 11.9218 33.342 12.1892C33.342 12.4566 33.3833 12.6826 33.466 12.8674C33.5497 13.051 33.6651 13.1904 33.812 13.2856C33.9588 13.3797 34.1281 13.4268 34.3197 13.4268C34.5113 13.4268 34.6806 13.3797 34.8275 13.2856C34.9744 13.1904 35.0891 13.051 35.1718 12.8674C35.2555 12.6826 35.2974 12.4566 35.2974 12.1892Z" fill="#4FA31A"/>
<path d="M36.4807 13.9515V10.4263H37.1193V13.4162H38.672V13.9515H36.4807Z" fill="#4FA31A"/>
<path d="M42.1769 12.1892C42.1769 12.569 42.1057 12.8944 41.9634 13.1652C41.8223 13.4348 41.6295 13.6414 41.3851 13.7848C41.1418 13.9283 40.8658 14 40.5571 14C40.2484 14 39.9719 13.9283 39.7275 13.7848C39.4842 13.6403 39.2914 13.4331 39.1491 13.1634C39.008 12.8926 38.9374 12.5679 38.9374 12.1892C38.9374 11.8093 39.008 11.4846 39.1491 11.2149C39.2914 10.9441 39.4842 10.737 39.7275 10.5936C39.9719 10.4501 40.2484 10.3784 40.5571 10.3784C40.8658 10.3784 41.1418 10.4501 41.3851 10.5936C41.6295 10.737 41.8223 10.9441 41.9634 11.2149C42.1057 11.4846 42.1769 11.8093 42.1769 12.1892ZM41.5348 12.1892C41.5348 11.9218 41.4929 11.6963 41.4092 11.5127C41.3265 11.328 41.2118 11.1886 41.0649 11.0945C40.918 10.9992 40.7487 10.9516 40.5571 10.9516C40.3655 10.9516 40.1962 10.9992 40.0494 11.0945C39.9025 11.1886 39.7871 11.328 39.7034 11.5127C39.6207 11.6963 39.5794 11.9218 39.5794 12.1892C39.5794 12.4566 39.6207 12.6826 39.7034 12.8674C39.7871 13.051 39.9025 13.1904 40.0494 13.2856C40.1962 13.3797 40.3655 13.4268 40.5571 13.4268C40.7487 13.4268 40.918 13.3797 41.0649 13.2856C41.2118 13.1904 41.3265 13.051 41.4092 12.8674C41.4929 12.6826 41.5348 12.4566 41.5348 12.1892Z" fill="#4FA31A"/>
<path d="M45.0798 11.5523C45.0512 11.4594 45.0116 11.3762 44.9611 11.3028C44.9117 11.2282 44.852 11.1644 44.7821 11.1117C44.7132 11.0589 44.634 11.0193 44.5445 10.9929C44.455 10.9653 44.3575 10.9516 44.2519 10.9516C44.0625 10.9516 43.8938 10.9992 43.7458 11.0945C43.5978 11.1897 43.4813 11.3297 43.3964 11.5145C43.3127 11.698 43.2708 11.9218 43.2708 12.1858C43.2708 12.452 43.3127 12.6775 43.3964 12.8622C43.4802 13.047 43.5967 13.1875 43.7458 13.2839C43.895 13.3792 44.0683 13.4268 44.2657 13.4268C44.4447 13.4268 44.5996 13.3924 44.7304 13.3235C44.8624 13.2547 44.9639 13.1571 45.0351 13.0309C45.1062 12.9035 45.1418 12.7544 45.1418 12.5834L45.2864 12.6058H44.3294V12.1066H45.7598V12.53C45.7598 12.8318 45.6955 13.0928 45.567 13.3132C45.4384 13.5335 45.2617 13.7033 45.0368 13.8227C44.8119 13.9409 44.5537 14 44.2622 14C43.9375 14 43.6523 13.9271 43.4068 13.7814C43.1623 13.6345 42.9713 13.4262 42.8336 13.1566C42.697 12.8857 42.6287 12.5644 42.6287 12.1926C42.6287 11.908 42.6689 11.6539 42.7492 11.4301C42.8307 11.2064 42.9443 11.0164 43.09 10.8604C43.2358 10.7031 43.4068 10.5838 43.603 10.5023C43.7992 10.4197 44.0126 10.3784 44.2433 10.3784C44.4384 10.3784 44.6202 10.4071 44.7889 10.4645C44.9576 10.5207 45.1074 10.601 45.2382 10.7054C45.3701 10.8099 45.4786 10.9338 45.5635 11.0772C45.6484 11.2207 45.7041 11.3791 45.7305 11.5523H45.0798Z" fill="#4FA31A"/>
<path d="M45.9412 10.4263H46.6624L47.5248 11.9857H47.5591L48.4215 10.4263H49.1427L47.8604 12.6364V13.9515H47.2235V12.6364L45.9412 10.4263Z" fill="#4FA31A"/>
</svg>
