<svg width="91" height="26" viewBox="0 0 91 26" fill="none" xmlns="http://www.w3.org/2000/svg">
<path d="M8 0H0V8H8V0Z" fill="#4FA31A"/>
<path d="M17 0H9V8H17V0Z" fill="#4FA31A"/>
<path d="M26 0H18V8H26V0Z" fill="#4FA31A"/>
<path d="M8 9H0V17H8V9Z" fill="#4FA31A"/>
<path d="M17 9H9V17H17V9Z" fill="#4FA31A"/>
<path d="M26 9H18V17H26V9Z" fill="#4FA31A"/>
<path d="M8 18H0V26H8V18Z" fill="#4FA31A"/>
<path d="M17 18H9V26H17V18Z" fill="#4FA31A"/>
<path d="M26 18H18V26H26V18Z" fill="#4FA31A"/>
<path d="M33.0909 0.96582V18.0281H30V0.96582H33.0909Z" fill="#0C0E0C"/>
<path d="M39.3208 10.5299V18.028H36.3049V5.23132H39.1875V7.40576H39.3375C39.6318 6.68928 40.1011 6.11998 40.7454 5.69787C41.3953 5.27576 42.1978 5.0647 43.1532 5.0647C44.0362 5.0647 44.8055 5.25353 45.4609 5.63121C46.1218 6.00889 46.6327 6.55598 46.9938 7.27246C47.3604 7.98894 47.5408 8.85816 47.5353 9.88011V18.028H44.5194V10.3467C44.5194 9.49133 44.2973 8.82205 43.853 8.33885C43.4141 7.85564 42.806 7.61403 42.0285 7.61403C41.5007 7.61403 41.0314 7.73066 40.6205 7.96394C40.215 8.19165 39.8956 8.52213 39.6623 8.95535C39.4347 9.38858 39.3208 9.91344 39.3208 10.5299Z" fill="#0C0E0C"/>
<path d="M57.0825 5.23136V7.56409H49.5178V5.23136H57.0825ZM51.409 18.0281V4.02335C51.409 3.16246 51.5867 2.44598 51.9421 1.87391C52.3032 1.30183 52.7864 0.874166 53.3918 0.590906C53.9972 0.307646 54.6692 0.166016 55.4079 0.166016C55.93 0.166016 56.3938 0.207672 56.7992 0.290984C57.2047 0.374295 57.5046 0.449276 57.699 0.515926L57.0991 2.84865C56.9714 2.80977 56.8104 2.7709 56.6159 2.73202C56.4215 2.68758 56.2049 2.66536 55.9661 2.66536C55.4052 2.66536 55.008 2.80145 54.7747 3.07359C54.5471 3.34019 54.4332 3.72343 54.4332 4.2233V18.0281H51.409Z" fill="#0C0E0C"/>
<path d="M62.4603 0.96582V18.0281H59.4444V0.96582H62.4603Z" fill="#0C0E0C"/>
<path d="M73.7177 12.6457V5.23096H76.7336V18.0277H73.8094V15.7532H73.6761C73.3873 16.4697 72.9123 17.0556 72.2514 17.5111C71.596 17.9665 70.788 18.1942 69.8271 18.1942C68.9884 18.1942 68.2469 18.0081 67.6026 17.636C66.9639 17.2584 66.464 16.7114 66.1031 15.9949C65.742 15.2728 65.5615 14.4008 65.5615 13.3788V5.23096H68.5774V12.9123C68.5774 13.7232 68.7996 14.3674 69.2439 14.8451C69.6882 15.3228 70.2714 15.5616 70.9934 15.5616C71.4377 15.5616 71.8682 15.4533 72.2848 15.2367C72.7013 15.0201 73.0429 14.698 73.3095 14.2702C73.5817 13.837 73.7177 13.2955 73.7177 12.6457Z" fill="#0C0E0C"/>
<path d="M82.301 5.23096L84.8837 9.95473L87.508 5.23096H90.6988L86.8415 11.6293L90.7655 18.0277H87.5913L84.8837 13.4205L82.2011 18.0277H79.0018L82.9009 11.6293L79.1019 5.23096H82.301Z" fill="#0C0E0C"/>
<path d="M30 20.2634V19.282H35.1567V20.2634H33.159V25.7452H31.9977V20.2634H30Z" fill="#4FA31A"/>
<path d="M36.0367 25.7452V19.282H40.2403V20.2634H37.2076V22.0182H40.0226V22.9996H37.2076V24.7638H40.2656V25.7452H36.0367Z" fill="#4FA31A"/>
<path d="M46.8529 21.4631H45.6726C45.6389 21.2696 45.5768 21.098 45.4864 20.9487C45.3959 20.7972 45.2834 20.6689 45.1487 20.5637C45.0141 20.4585 44.8604 20.3796 44.6879 20.327C44.5176 20.2723 44.3335 20.245 44.1357 20.245C43.7843 20.245 43.473 20.3333 43.2015 20.5101C42.9302 20.6846 42.7177 20.9414 42.5641 21.2801C42.4104 21.6167 42.3337 22.028 42.3337 22.514C42.3337 23.0084 42.4104 23.4251 42.5641 23.7638C42.7197 24.1004 42.9322 24.3549 43.2015 24.5274C43.473 24.6979 43.7833 24.7831 44.1326 24.7831C44.3261 24.7831 44.5071 24.7578 44.6754 24.7073C44.8457 24.6548 44.9983 24.5779 45.133 24.4769C45.2697 24.3759 45.3844 24.2519 45.4769 24.1046C45.5716 23.9573 45.6369 23.789 45.6726 23.5996L46.8529 23.6059C46.8087 23.9131 46.7129 24.2014 46.5657 24.4707C46.4206 24.7399 46.2302 24.9777 45.9945 25.1839C45.7589 25.388 45.4832 25.5479 45.1677 25.6636C44.8521 25.7772 44.5018 25.834 44.1167 25.834C43.5487 25.834 43.0417 25.7025 42.5956 25.4395C42.1496 25.1765 41.7982 24.7967 41.5416 24.3002C41.2849 23.8037 41.1566 23.2083 41.1566 22.514C41.1566 21.8176 41.286 21.2222 41.5447 20.7278C41.8035 20.2312 42.1559 19.8515 42.6019 19.5885C43.048 19.3255 43.5529 19.1941 44.1167 19.1941C44.4765 19.1941 44.811 19.2446 45.1203 19.3455C45.4296 19.4465 45.7053 19.5948 45.9471 19.7905C46.1891 19.9841 46.3879 20.2218 46.5437 20.5038C46.7014 20.7836 46.8045 21.1034 46.8529 21.4631Z" fill="#4FA31A"/>
<path d="M47.8106 25.7452V19.282H48.9815V22.0182H51.9764V19.282H53.1504V25.7452H51.9764V22.9996H48.9815V25.7452H47.8106Z" fill="#4FA31A"/>
<path d="M59.621 19.282V25.7452H58.5795L55.5342 21.3427H55.4806V25.7452H54.3097V19.282H55.3575L58.3997 23.6876H58.4564V19.282H59.621Z" fill="#4FA31A"/>
<path d="M66.5577 22.514C66.5577 23.2104 66.4272 23.8069 66.1663 24.3034C65.9075 24.7978 65.5541 25.1765 65.106 25.4395C64.6599 25.7025 64.154 25.834 63.588 25.834C63.022 25.834 62.515 25.7025 62.0669 25.4395C61.6209 25.1745 61.2674 24.7947 61.0064 24.3002C60.7477 23.8037 60.6183 23.2083 60.6183 22.514C60.6183 21.8176 60.7477 21.2222 61.0064 20.7278C61.2674 20.2312 61.6209 19.8515 62.0669 19.5885C62.515 19.3255 63.022 19.1941 63.588 19.1941C64.154 19.1941 64.6599 19.3255 65.106 19.5885C65.5541 19.8515 65.9075 20.2312 66.1663 20.7278C66.4272 21.2222 66.5577 21.8176 66.5577 22.514ZM65.3805 22.514C65.3805 22.0238 65.3037 21.6104 65.1502 21.2738C64.9987 20.9351 64.7882 20.6794 64.5189 20.5069C64.2497 20.3322 63.9393 20.245 63.588 20.245C63.2367 20.245 62.9263 20.3322 62.657 20.5069C62.3878 20.6794 62.1762 20.9351 62.0227 21.2738C61.8712 21.6104 61.7954 22.0238 61.7954 22.514C61.7954 23.0043 61.8712 23.4187 62.0227 23.7574C62.1762 24.0941 62.3878 24.3497 62.657 24.5243C62.9263 24.6968 63.2367 24.7831 63.588 24.7831C63.9393 24.7831 64.2497 24.6968 64.5189 24.5243C64.7882 24.3497 64.9987 24.0941 65.1502 23.7574C65.3037 23.4187 65.3805 23.0043 65.3805 22.514Z" fill="#4FA31A"/>
<path d="M67.5501 25.7452V19.282H68.7209V24.7638H71.5676V25.7452H67.5501Z" fill="#4FA31A"/>
<path d="M77.9936 22.514C77.9936 23.2104 77.8631 23.8069 77.6022 24.3034C77.3434 24.7978 76.9901 25.1765 76.5419 25.4395C76.0958 25.7025 75.5899 25.834 75.0239 25.834C74.4579 25.834 73.9509 25.7025 73.5028 25.4395C73.0568 25.1745 72.7033 24.7947 72.4423 24.3002C72.1836 23.8037 72.0542 23.2083 72.0542 22.514C72.0542 21.8176 72.1836 21.2222 72.4423 20.7278C72.7033 20.2312 73.0568 19.8515 73.5028 19.5885C73.9509 19.3255 74.4579 19.1941 75.0239 19.1941C75.5899 19.1941 76.0958 19.3255 76.5419 19.5885C76.9901 19.8515 77.3434 20.2312 77.6022 20.7278C77.8631 21.2222 77.9936 21.8176 77.9936 22.514ZM76.8165 22.514C76.8165 22.0238 76.7396 21.6104 76.5861 21.2738C76.4346 20.9351 76.2241 20.6794 75.9549 20.5069C75.6856 20.3322 75.3752 20.245 75.0239 20.245C74.6726 20.245 74.3622 20.3322 74.0929 20.5069C73.8237 20.6794 73.6121 20.9351 73.4586 21.2738C73.3071 21.6104 73.2313 22.0238 73.2313 22.514C73.2313 23.0043 73.3071 23.4187 73.4586 23.7574C73.6121 24.0941 73.8237 24.3497 74.0929 24.5243C74.3622 24.6968 74.6726 24.7831 75.0239 24.7831C75.3752 24.7831 75.6856 24.6968 75.9549 24.5243C76.2241 24.3497 76.4346 24.0941 76.5861 23.7574C76.7396 23.4187 76.8165 23.0043 76.8165 22.514Z" fill="#4FA31A"/>
<path d="M83.3159 21.3463C83.2634 21.176 83.1908 21.0234 83.0982 20.8888C83.0078 20.752 82.8983 20.6352 82.77 20.5385C82.6438 20.4417 82.4986 20.3691 82.3345 20.3206C82.1703 20.2701 81.9915 20.245 81.798 20.245C81.4508 20.245 81.1415 20.3322 80.8702 20.5069C80.5987 20.6815 80.3852 20.9382 80.2295 21.277C80.076 21.6135 79.9991 22.0238 79.9991 22.5078C79.9991 22.9958 80.076 23.4092 80.2295 23.748C80.3831 24.0867 80.5967 24.3444 80.8702 24.5212C81.1437 24.6958 81.4614 24.7831 81.8232 24.7831C82.1515 24.7831 82.4355 24.72 82.6753 24.5938C82.9173 24.4675 83.1034 24.2887 83.2339 24.0572C83.3644 23.8237 83.4296 23.5502 83.4296 23.2367L83.6947 23.2778H81.94V22.3625H84.5626V23.1389C84.5626 23.6922 84.4447 24.1708 84.2091 24.5748C83.9734 24.9788 83.6494 25.2901 83.2371 25.509C82.8247 25.7256 82.3513 25.834 81.8169 25.834C81.2215 25.834 80.6986 25.7004 80.2485 25.4332C79.8003 25.1639 79.4501 24.7821 79.1976 24.2876C78.9471 23.7911 78.822 23.202 78.822 22.5203C78.822 21.9985 78.8957 21.5326 79.0429 21.1223C79.1923 20.7121 79.4005 20.3638 79.6678 20.0777C79.935 19.7894 80.2485 19.5707 80.6083 19.4212C80.968 19.2698 81.3593 19.1941 81.7822 19.1941C82.1399 19.1941 82.4733 19.2466 82.7826 19.3519C83.0918 19.4549 83.3664 19.6022 83.6062 19.7937C83.8482 19.9851 84.0471 20.2124 84.2028 20.4753C84.3584 20.7383 84.4605 21.0287 84.5089 21.3463H83.3159Z" fill="#4FA31A"/>
<path d="M84.8952 19.282H86.2174L87.7986 22.1412H87.8616L89.4428 19.282H90.765L88.414 23.3341V25.7452H87.2462V23.3341L84.8952 19.282Z" fill="#4FA31A"/>
</svg>
